<svg xmlns="http://www.w3.org/2000/svg" width="18" height="18" viewBox="0 0 18 18"><defs><clipPath id="2273a"><path fill="#fff" d="M9 0a9 9 0 0 1 9 9A9 9 0 1 1 0 9a9 9 0 0 1 9-9z"/></clipPath></defs><g><g><path fill="#fff" d="M9 0a9 9 0 0 1 9 9A9 9 0 1 1 0 9a9 9 0 0 1 9-9z"/><path fill="none" stroke="#4f6882" stroke-linecap="round" stroke-linejoin="round" stroke-miterlimit="20" stroke-width="4" d="M9 0a9 9 0 0 1 9 9A9 9 0 1 1 0 9a9 9 0 0 1 9-9z" clip-path="url(&quot;#2273a&quot;)"/></g><g><path fill="#506981" d="M14.016 8.993a1 1 0 0 1-1 1h-3v3a1 1 0 1 1-2 0v-3h-3a1 1 0 0 1 0-2h3v-3a1 1 0 1 1 2 0v3h3a1 1 0 0 1 1 1z"/></g></g></svg>