<svg width="58" height="58" viewBox="0 0 58 58" fill="none" xmlns="http://www.w3.org/2000/svg">
<path fill-rule="evenodd" clip-rule="evenodd" d="M30.0133 0.0502315C39.088 0.708584 43.8461 9.24754 49.0986 15.9785C53.7854 21.9846 59.4779 28.3007 57.6495 35.4654C55.8246 42.6159 47.5808 45.9025 40.5353 49.5336C32.4434 53.704 24.0995 60.223 15.3881 57.246C6.224 54.1144 2.21932 44.5823 0.501839 35.8529C-1.10271 27.6974 1.19055 19.5392 6.66322 12.8999C12.3942 5.94716 20.4606 -0.642794 30.0133 0.0502315Z" fill="#B68E6F"/>
<g clip-path="url(#clip0)">
<path d="M49.891 31.1348C46.5282 31.1348 43.4068 29.4646 41.5412 26.6658L40.8719 25.6618L40.2025 26.6658C38.3369 29.4646 35.2155 31.1348 31.8527 31.1348H28.8045V44.0356C28.8045 47.1538 30.2083 50.0846 32.5542 52.0516H15.9326V48.8336H26.391V34.3527H9.49667V40.7887H4.66971V8.60898H40.0674V23.0898H41.6764V7H3.06073V41.9262L14.7951 53.6606H35.0272L40.8719 57L47.6698 53.1159C50.92 51.2591 52.9392 47.7789 52.9392 44.0356V31.1348H49.891ZM14.3236 50.914L5.80727 42.3977H14.3236V50.914ZM11.1057 40.7887V35.9617H24.782V47.2246H15.9326V40.7887H11.1057ZM51.3303 44.0356C51.3303 47.2037 49.6215 50.1473 46.8718 51.7193L40.8719 55.1481L34.872 51.7193C32.1222 50.1473 30.4135 47.2037 30.4135 44.0356V32.7438H31.8527C35.3764 32.7438 38.6716 31.1629 40.8719 28.4655C43.0721 31.1629 46.3673 32.7438 49.891 32.7438H51.3303V44.0356Z" fill="white"/>
<path d="M48.1123 39.1797V44.0356C48.1123 46.0517 47.0247 47.9253 45.2749 48.9253L46.073 50.3219C48.3231 49.0363 49.7213 46.6277 49.7213 44.0356V39.1797H48.1123Z" fill="white"/>
<path d="M7.8877 10.2178V15.0447H36.8494V10.2178H7.8877ZM35.2404 13.4357H9.49668V11.8268H35.2404V13.4357Z" fill="white"/>
<path d="M47.5435 34.5884L36.8494 45.2825L34.2002 42.6333L33.0627 43.7709L36.8494 47.5576L48.6811 35.7259L47.5435 34.5884Z" fill="white"/>
<path d="M23.1731 37.5708H12.7147V39.1798H23.1731V37.5708Z" fill="white"/>
<path d="M23.173 40.7886H17.5416V42.3975H23.173V40.7886Z" fill="white"/>
<path d="M23.173 44.0066H17.5416V45.6156H23.173V44.0066Z" fill="white"/>
<path d="M33.6315 18.2629H7.8877V19.8719H33.6315V18.2629Z" fill="white"/>
<path d="M33.6315 21.4807H7.8877V23.0897H33.6315V21.4807Z" fill="white"/>
<path d="M33.6315 24.699H7.8877V26.308H33.6315V24.699Z" fill="white"/>
<path d="M23.173 27.9167H7.8877V29.5257H23.173V27.9167Z" fill="white"/>
<path d="M23.173 31.1348H7.8877V32.7438H23.173V31.1348Z" fill="white"/>
<path d="M36.8494 18.2629H35.2404V19.8719H36.8494V18.2629Z" fill="white"/>
<path d="M36.8494 21.4807H35.2404V23.0897H36.8494V21.4807Z" fill="white"/>
<path d="M36.8494 24.699H35.2404V26.308H36.8494V24.699Z" fill="white"/>
<path d="M26.391 27.9167H24.782V29.5257H26.391V27.9167Z" fill="white"/>
<path d="M26.391 31.1348H24.782V32.7438H26.391V31.1348Z" fill="white"/>
</g>
<defs>
<clipPath id="clip0">
<rect width="50" height="50" fill="white" transform="translate(3 7)"/>
</clipPath>
</defs>
</svg>
