<svg width="58" height="58" viewBox="0 0 58 58" fill="none" xmlns="http://www.w3.org/2000/svg">
<path fill-rule="evenodd" clip-rule="evenodd" d="M30.0133 0.0502315C39.088 0.708584 43.8461 9.24754 49.0986 15.9785C53.7854 21.9846 59.4779 28.3007 57.6495 35.4654C55.8246 42.6159 47.5808 45.9025 40.5353 49.5336C32.4434 53.704 24.0995 60.223 15.3881 57.246C6.224 54.1144 2.21932 44.5823 0.501839 35.8529C-1.10271 27.6974 1.19055 19.5392 6.66322 12.8999C12.3942 5.94716 20.4606 -0.642794 30.0133 0.0502315Z" fill="#B68E6F"/>
<g clip-path="url(#clip0)">
<path d="M28.1 28.1667C26.6 27.9751 26.3334 27.8167 26.3334 27.1167C26.3334 25.9167 29.1084 25.6834 29.775 26.7917C30.0052 27.1945 30.5182 27.3344 30.9209 27.1042C31.3236 26.8741 31.4635 26.3611 31.2334 25.9584C30.6788 25.15 29.8057 24.6165 28.8334 24.4917V24.0001C28.8334 23.5398 28.4603 23.1667 28 23.1667C27.5398 23.1667 27.1667 23.5398 27.1667 24.0001V24.5084C25.8027 24.6459 24.7419 25.7562 24.6667 27.1251C24.6667 29.4251 26.6917 29.6751 27.9 29.8251C29.4 30.0167 29.6667 30.1751 29.6667 30.8751C29.6667 31.7834 28.625 31.9167 28 31.9167C27.3372 31.9622 26.6752 31.8177 26.0917 31.5001C25.8803 31.2887 25.5722 31.2061 25.2835 31.2835C24.9947 31.3609 24.7692 31.5864 24.6918 31.8752C24.6144 32.1639 24.697 32.472 24.9084 32.6834C25.5497 33.2007 26.343 33.4935 27.1667 33.5167V34.0001C27.1667 34.4603 27.5398 34.8334 28 34.8334C28.4603 34.8334 28.8334 34.4603 28.8334 34.0001V33.5167C30.2311 33.4293 31.323 32.2755 31.3334 30.8751C31.3334 28.5751 29.3084 28.3251 28.1 28.1667Z" fill="white"/>
<path d="M47.625 22.7248C47.2792 22.3628 46.749 22.2458 46.2829 22.4285C45.8169 22.6113 45.5076 23.0576 45.5 23.5581V25.6664H37.0834C36.759 25.6625 36.4663 25.4707 36.3334 25.1748C35.4184 23.181 33.8188 21.5814 31.825 20.6664C31.5291 20.5335 31.3373 20.2408 31.3334 19.9164V11.4998H33.4417C33.9385 11.4889 34.3802 11.1809 34.5622 10.7185C34.7442 10.2562 34.631 9.72976 34.275 9.3831L29.375 4.5831C29.0574 4.23401 28.6111 4.02956 28.1392 4.01697C27.6674 4.00439 27.2108 4.18477 26.875 4.51644L21.725 9.37477C21.3631 9.72055 21.246 10.2508 21.4288 10.7169C21.6115 11.1829 22.0578 11.4922 22.5584 11.4998H24.6667V19.9164C24.6628 20.2408 24.4709 20.5335 24.175 20.6664C22.1812 21.5814 20.5816 23.181 19.6667 25.1748C19.5337 25.4707 19.2411 25.6625 18.9167 25.6664H10.5V23.5581C10.4891 23.0613 10.1811 22.6196 9.71879 22.4376C9.25644 22.2556 8.73 22.3688 8.38335 22.7248L3.58335 27.6248C3.2321 27.9412 3.02609 28.3879 3.01349 28.8605C3.00089 29.333 3.18279 29.7901 3.51669 30.1248L8.37502 35.2414C8.7208 35.6034 9.25107 35.7205 9.7171 35.5377C10.1831 35.3549 10.4925 34.9086 10.5 34.4081V32.3331H18.9167C19.2411 32.337 19.5337 32.5289 19.6667 32.8248C20.5816 34.8186 22.1812 36.4182 24.175 37.3331C24.4709 37.4661 24.6628 37.7587 24.6667 38.0831V46.4998H22.5584C22.0616 46.5107 21.6199 46.8186 21.4378 47.281C21.2558 47.7434 21.369 48.2698 21.725 48.6164L26.65 53.4164C26.9677 53.7655 27.414 53.97 27.8858 53.9826C28.3576 53.9952 28.8142 53.8148 29.15 53.4831L34.2667 48.6248C34.6287 48.279 34.7457 47.7487 34.563 47.2827C34.3802 46.8167 33.9339 46.5073 33.4334 46.4998H31.3334V38.0831C31.3373 37.7587 31.5291 37.4661 31.825 37.3331C33.8188 36.4182 35.4184 34.8186 36.3334 32.8248C36.4663 32.5289 36.759 32.337 37.0834 32.3331H45.5V34.4414C45.5109 34.9382 45.8189 35.3799 46.2812 35.562C46.7436 35.744 47.27 35.6308 47.6167 35.2748L52.4167 30.3414C52.7796 30.0203 52.9914 29.5619 53.0009 29.0774C53.0104 28.5929 52.8167 28.1266 52.4667 27.7914L47.625 22.7248ZM47.1667 33.3748V31.8914C47.1667 31.2149 46.6182 30.6664 45.9417 30.6664H37.0834C36.1061 30.6703 35.2206 31.2432 34.8167 32.1331C34.0684 33.7615 32.7618 35.0682 31.1334 35.8164C30.2434 36.2204 29.6705 37.1058 29.6667 38.0831V46.9414C29.6667 47.618 30.2151 48.1664 30.8917 48.1664H32.3334L28 52.2748C27.9691 52.2893 27.9409 52.3091 27.9167 52.3331L23.6167 48.1664H25.1C25.4264 48.1687 25.7401 48.0406 25.9716 47.8106C26.2032 47.5806 26.3334 47.2678 26.3334 46.9414V38.0831C26.3295 37.1058 25.7566 36.2204 24.8667 35.8164C23.2383 35.0682 21.9316 33.7615 21.1834 32.1331C20.7794 31.2432 19.894 30.6703 18.9167 30.6664H10.0584C9.3818 30.6664 8.83335 31.2149 8.83335 31.8914V33.3331L4.72502 28.9998C4.71046 28.9689 4.69073 28.9407 4.66669 28.9164L8.83335 24.6164V26.0998C8.83113 26.4261 8.95921 26.7398 9.18919 26.9714C9.41916 27.2029 9.73201 27.3331 10.0584 27.3331H18.9167C19.894 27.3293 20.7794 26.7563 21.1834 25.8664C21.9316 24.238 23.2383 22.9314 24.8667 22.1831C25.7566 21.7792 26.3295 20.8937 26.3334 19.9164V11.0581C26.3334 10.3816 25.7849 9.8331 25.1084 9.8331H23.6667L28 5.72477C28.0309 5.71021 28.0591 5.69048 28.0834 5.66644L32.3834 9.8331H30.8917C30.2151 9.8331 29.6667 10.3816 29.6667 11.0581V19.9164C29.6705 20.8937 30.2434 21.7792 31.1334 22.1831C32.7618 22.9314 34.0684 24.238 34.8167 25.8664C35.2206 26.7563 36.1061 27.3293 37.0834 27.3331H45.9417C46.6182 27.3331 47.1667 26.7847 47.1667 26.1081V24.6664L51.275 28.9998C51.2896 29.0307 51.3093 29.0589 51.3334 29.0831L47.1667 33.3748Z" fill="white"/>
<path d="M51.3334 4H43.9834C43.5774 3.99903 43.2126 4.24765 43.065 4.62585C42.9174 5.00405 43.0174 5.43407 43.3167 5.70834L45.1334 7.375L35.5 16.9917C34.8538 17.6417 34.8538 18.6916 35.5 19.3417L37.6584 21.5C38.3084 22.1462 39.3583 22.1462 40.0084 21.5L49.6667 11.8667L51.3334 13.7167C51.6188 13.9821 52.0333 14.0558 52.3927 13.9048C52.7521 13.7539 52.9898 13.4064 53.0001 13.0167V5.66667C53.0001 4.74619 52.2539 4 51.3334 4ZM51.3334 11.25L50.3584 10.1833C50.1739 9.99861 49.9236 9.89481 49.6626 9.89481C49.4015 9.89481 49.1512 9.99861 48.9667 10.1833L38.8334 20.325L36.675 18.1667L46.8084 8.03334C46.9977 7.85003 47.1032 7.59685 47.1001 7.33334C47.1001 6.75 46.7084 6.5 45.7501 5.66667H51.3334V11.25Z" fill="white"/>
<path d="M4.70834 13.6833L6.33334 11.8667L15.9917 21.5C16.6417 22.1462 17.6916 22.1462 18.3417 21.5L20.5 19.3417C21.1462 18.6916 21.1462 17.6417 20.5 16.9917L10.8667 7.33333L12.7083 5.66667C12.9807 5.38489 13.0598 4.96828 12.9096 4.6063C12.7594 4.24432 12.4085 4.00611 12.0167 4H4.66667C3.74619 4 3 4.74619 3 5.66667V13.0167C2.99903 13.4226 3.24765 13.7875 3.62585 13.9351C4.00405 14.0827 4.43407 13.9827 4.70834 13.6833ZM4.66667 5.66667H10.25L9.19167 6.63333C8.80602 7.02032 8.80602 7.64634 9.19167 8.03333L19.325 18.1667L17.1667 20.325L7.025 10.1833C6.83964 9.99083 6.58391 9.88206 6.31667 9.88206C6.04943 9.88206 5.7937 9.99083 5.60834 10.1833L4.66667 11.25V5.66667Z" fill="white"/>
<path d="M4.66667 54.0001H12.0167C12.404 53.9844 12.746 53.7427 12.89 53.3827C13.034 53.0228 12.953 52.6119 12.6833 52.3334L10.8667 50.6667L20.5 41.0084C21.1462 40.3583 21.1462 39.3084 20.5 38.6584L18.3417 36.5C17.6916 35.8538 16.6417 35.8538 15.9917 36.5L6.33333 46.1334L4.66667 44.2834C4.38122 44.0179 3.96672 43.9443 3.60732 44.0952C3.24791 44.2462 3.01028 44.5937 3 44.9834V52.3334C3 53.2539 3.74619 54.0001 4.66667 54.0001ZM4.66667 46.7501L5.64167 47.8167C5.82612 48.0014 6.07645 48.1052 6.3375 48.1052C6.59855 48.1052 6.84888 48.0014 7.03333 47.8167L17.1667 37.675L19.325 39.8334L9.19167 49.9667C9.00233 50.15 8.89684 50.4032 8.9 50.6667C8.9 51.2501 9.29167 51.5001 10.25 52.3334H4.66667V46.7501Z" fill="white"/>
<path d="M51.3334 44.3167L49.6667 46.1334L40.0084 36.5C39.3583 35.8538 38.3084 35.8538 37.6584 36.5L35.5 38.6584C34.8538 39.3084 34.8538 40.3583 35.5 41.0084L45.1334 50.6667L43.2917 52.3334C43.0193 52.6152 42.9403 53.0318 43.0905 53.3938C43.2407 53.7557 43.5915 53.994 43.9834 54.0001H51.3334C52.2539 54.0001 53.0001 53.2539 53.0001 52.3334V44.9834C52.9844 44.596 52.7427 44.254 52.3827 44.11C52.0228 43.9661 51.6119 44.047 51.3334 44.3167ZM51.3334 52.3334H45.7501L46.8084 51.3667C47.194 50.9797 47.194 50.3537 46.8084 49.9667L36.675 39.8334L38.8334 37.675L48.9751 47.8167C49.1604 48.0092 49.4162 48.118 49.6834 48.118C49.9506 48.118 50.2064 48.0092 50.3917 47.8167L51.3334 46.7501V52.3334Z" fill="white"/>
</g>
<defs>
<clipPath id="clip0">
<rect width="50" height="50" fill="white" transform="translate(3 4)"/>
</clipPath>
</defs>
</svg>
