<svg width="58" height="58" viewBox="0 0 58 58" fill="none" xmlns="http://www.w3.org/2000/svg">
<path fill-rule="evenodd" clip-rule="evenodd" d="M30.0133 0.0502315C39.088 0.708584 43.8461 9.24754 49.0986 15.9785C53.7854 21.9846 59.4779 28.3007 57.6495 35.4654C55.8246 42.6159 47.5808 45.9025 40.5353 49.5336C32.4434 53.704 24.0995 60.223 15.3881 57.246C6.224 54.1144 2.21932 44.5823 0.501839 35.8529C-1.10271 27.6974 1.19055 19.5392 6.66322 12.8999C12.3942 5.94716 20.4606 -0.642794 30.0133 0.0502315Z" fill="#B68E6F"/>
<g clip-path="url(#clip0)">
<path d="M44.3613 43.1631C43.9568 43.1631 43.6289 43.4909 43.6289 43.8955V52.0713C43.6289 52.8785 42.9722 53.5352 42.165 53.5352H6.14844C5.34121 53.5352 4.68457 52.8784 4.68457 52.0713V28.8682C4.68457 28.4636 4.35664 28.1357 3.95215 28.1357C3.54766 28.1357 3.21973 28.4636 3.21973 28.8682V52.0713C3.21973 53.6862 4.53359 55 6.14844 55H42.165C43.78 55 45.0937 53.6862 45.0937 52.0713V43.8955C45.0937 43.4909 44.7658 43.1631 44.3613 43.1631Z" fill="white"/>
<path d="M19.1752 33.8605C19.5797 33.8605 19.9076 33.5327 19.9076 33.1281V23.9851C19.9076 23.5805 19.5797 23.2527 19.1752 23.2527H17.1786C16.7741 23.2527 16.4462 23.5805 16.4462 23.9851C16.4462 24.3897 16.7741 24.7175 17.1786 24.7175H18.4427V33.1281C18.4427 33.5327 18.7707 33.8605 19.1752 33.8605Z" fill="white"/>
<path d="M29.1928 24.5716C29.1416 23.9576 28.7819 23.4597 28.2767 23.3033C28.0382 23.2295 27.4208 23.1347 26.8394 23.8481C26.3119 24.4954 23.6716 29.2657 23.1476 30.2153C23.0224 30.4421 23.0264 30.7183 23.1581 30.9416C23.2898 31.1646 23.5297 31.3016 23.7888 31.3016H27.7217C27.7169 31.9464 27.7119 32.5661 27.707 33.1216C27.7034 33.5261 28.0284 33.8569 28.4329 33.8605H28.4395C28.841 33.8605 29.1683 33.5369 29.1718 33.1345C29.1738 32.9112 29.1799 32.2119 29.1866 31.3015H29.6547C30.0592 31.3015 30.3871 30.9737 30.3871 30.5691C30.3871 30.1645 30.0592 29.8367 29.6547 29.8367H29.1968C29.2112 27.5615 29.2212 24.9133 29.1928 24.5716ZM27.7317 29.8367H25.0324C26.0104 28.0811 27.2074 25.9702 27.7428 25.1176C27.7513 25.963 27.744 27.8798 27.7317 29.8367Z" fill="white"/>
<path d="M33.8648 50.7871C33.9441 50.8146 34.0248 50.8276 34.1042 50.8276C34.4077 50.8276 34.6916 50.6373 34.7964 50.3343L38.026 40.9933C38.1582 40.611 37.9554 40.1939 37.5731 40.0617C37.1909 39.9293 36.7736 40.1323 36.6415 40.5146L35.0174 45.212L33.3504 40.5092C33.2153 40.128 32.7968 39.9287 32.4153 40.0636C32.0341 40.1987 31.8346 40.6174 31.9697 40.9987L34.25 47.4316L33.4119 49.8556C33.2797 50.2379 33.4825 50.655 33.8648 50.7871Z" fill="white"/>
<path d="M21.0862 43.8857C21.0862 46.0139 22.8176 47.7452 24.9457 47.7452C25.8499 47.7452 26.6817 47.4318 27.3403 46.9091V47.4285C27.3403 47.8331 27.6683 48.1609 28.0728 48.1609C28.4773 48.1609 28.8052 47.8331 28.8052 47.4285V40.3428C28.8052 39.9382 28.4773 39.6104 28.0728 39.6104C27.6683 39.6104 27.3403 39.9382 27.3403 40.3428V40.8622C26.6817 40.3395 25.8499 40.0262 24.9457 40.0262C22.8176 40.0264 21.0862 41.7576 21.0862 43.8857ZM24.9457 41.4912C26.2661 41.4912 27.3403 42.5654 27.3403 43.8858C27.3403 45.2063 26.2661 46.2805 24.9457 46.2805C23.6253 46.2805 22.5511 45.2063 22.5511 43.8858C22.5511 42.5654 23.6253 41.4912 24.9457 41.4912Z" fill="white"/>
<path d="M10.2473 43.886C10.2473 46.017 11.981 47.7507 14.112 47.7507C15.0182 47.7507 15.852 47.4363 16.5118 46.9119V47.0183C16.5118 47.4228 16.8397 47.7507 17.2442 47.7507C17.6487 47.7507 17.9766 47.4228 17.9766 47.0183V37.6772C17.9766 37.2727 17.6487 36.9448 17.2442 36.9448C16.8397 36.9448 16.5118 37.2727 16.5118 37.6772V40.8603C15.852 40.3359 15.0182 40.0215 14.112 40.0215C11.981 40.0215 10.2473 41.7552 10.2473 43.886ZM16.5118 43.886C16.5118 45.2093 15.4352 46.2858 14.112 46.2858C12.7887 46.2858 11.7122 45.2093 11.7122 43.886C11.7122 42.5628 12.7887 41.4863 14.112 41.4863C15.4352 41.4863 16.5118 42.5629 16.5118 43.886Z" fill="white"/>
<path d="M52.7803 28.3525C52.7803 25.7772 51.7998 23.3337 50.0195 21.4724C49.7399 21.1799 49.2763 21.1695 48.984 21.4493C48.6916 21.7288 48.6813 22.1925 48.9609 22.4849C50.4792 24.0725 51.3154 26.1563 51.3154 28.3526C51.3154 33.0353 47.5062 36.8448 42.8242 36.8448C38.1422 36.8448 34.333 33.0353 34.333 28.3526C34.333 23.6706 38.1421 19.8614 42.8242 19.8614C44.0812 19.8614 45.2898 20.1292 46.4167 20.6574C46.7829 20.8289 47.219 20.6714 47.3907 20.3052C47.5624 19.9389 47.4047 19.5027 47.0384 19.3311C46.4103 19.0366 45.7604 18.812 45.0938 18.6563V12.54C45.0938 10.9258 43.7799 9.6124 42.165 9.6124H40.7016V6.71895C40.7015 5.77109 39.9304 5 38.9826 5H37.4417C36.4939 5 35.7228 5.77109 35.7228 6.71895V9.6123H33.6738V6.71895C33.6738 5.77109 32.9027 5 31.9549 5H30.414C29.4661 5 28.695 5.77109 28.695 6.71895V9.6123H26.646V6.71895C26.6461 5.77109 25.875 5 24.9271 5H23.3862C22.4384 5 21.6673 5.77109 21.6673 6.71895V9.6123H19.6183V6.71895C19.6184 5.77109 18.8473 5 17.8994 5H16.3585C15.4106 5 14.6396 5.77109 14.6396 6.71895V9.6123H12.5906V6.71895C12.5906 5.77109 11.8195 5 10.8717 5H9.33086C8.38301 5 7.61191 5.77109 7.61191 6.71895V9.6123H6.14844C4.53359 9.6123 3.21973 10.9258 3.21973 12.54V25.4521C3.21973 25.8567 3.54766 26.1846 3.95215 26.1846C4.35664 26.1846 4.68457 25.8567 4.68457 25.4521V19.8613H37.6312C34.7765 21.6137 32.8682 24.7644 32.8682 28.3525C32.8682 33.8429 37.3344 38.3096 42.8242 38.3096C43.0951 38.3096 43.3634 38.2982 43.6289 38.277V40.4775C43.6289 40.8821 43.9568 41.21 44.3613 41.21C44.7658 41.21 45.0938 40.8821 45.0938 40.4775V38.0483C49.4937 37.0185 52.7803 33.0622 52.7803 28.3525ZM37.1877 6.71895C37.1877 6.57881 37.3017 6.46484 37.4418 6.46484H38.9827C39.1229 6.46484 39.2368 6.57881 39.2368 6.71895V13.9698C39.2368 14.11 39.1229 14.2239 38.9827 14.2239H37.4418C37.3017 14.2239 37.1877 14.11 37.1877 13.9698V6.71895ZM30.414 6.46484H31.9549C32.095 6.46484 32.209 6.57881 32.209 6.71895V13.9698C32.209 14.11 32.095 14.2239 31.9549 14.2239H30.414C30.2738 14.2239 30.1599 14.11 30.1599 13.9698V6.71895C30.16 6.57881 30.2739 6.46484 30.414 6.46484ZM23.1322 6.71895C23.1322 6.57881 23.2462 6.46484 23.3863 6.46484H24.9272C25.0674 6.46484 25.1813 6.57881 25.1813 6.71895V13.9698C25.1813 14.11 25.0674 14.2239 24.9272 14.2239H23.3863C23.2462 14.2239 23.1322 14.11 23.1322 13.9698V6.71895ZM16.1045 6.71895C16.1045 6.57881 16.2185 6.46484 16.3586 6.46484H17.8995C18.0396 6.46484 18.1536 6.57881 18.1536 6.71895V13.9698C18.1536 14.11 18.0396 14.2239 17.8995 14.2239H16.3586C16.2185 14.2239 16.1045 14.11 16.1045 13.9698V6.71895ZM9.33086 6.46484H10.8718C11.0119 6.46484 11.1259 6.57881 11.1259 6.71895V13.9698C11.1259 14.11 11.0119 14.2239 10.8718 14.2239H9.33086C9.19072 14.2239 9.07676 14.11 9.07676 13.9698V6.71895C9.07676 6.57881 9.19072 6.46484 9.33086 6.46484ZM4.68457 18.3965V12.54C4.68457 11.7334 5.34131 11.0772 6.14844 11.0772H7.61191V13.9698C7.61191 14.9176 8.38301 15.6888 9.33086 15.6888H10.8718C11.8196 15.6888 12.5907 14.9177 12.5907 13.9698V11.0771H14.6397V13.9697C14.6397 14.9175 15.4108 15.6887 16.3587 15.6887H17.8996C18.8475 15.6887 19.6186 14.9176 19.6186 13.9697V11.0771H21.6676V13.9697C21.6676 14.9175 22.4387 15.6887 23.3865 15.6887H24.9274C25.8753 15.6887 26.6464 14.9176 26.6464 13.9697V11.0771H28.6954V13.9697C28.6954 14.9175 29.4665 15.6887 30.4144 15.6887H31.9553C32.9031 15.6887 33.6742 14.9176 33.6742 13.9697V11.0771H35.7232V13.9697C35.7232 14.9175 36.4943 15.6887 37.4422 15.6887H38.9831C39.931 15.6887 40.702 14.9176 40.702 13.9697V11.0771H42.1655C42.9728 11.0771 43.6294 11.7334 43.6294 12.5399V18.3964H4.68457V18.3965Z" fill="white"/>
<path d="M44.6875 24.6159L41.8358 27.4677L40.9606 26.5924C39.9901 25.6218 38.4107 25.6218 37.4403 26.5924C36.97 27.0625 36.7111 27.6877 36.7111 28.3526C36.7111 29.0176 36.9699 29.6427 37.4402 30.1128L40.0755 32.7481C40.5457 33.2182 41.1708 33.4773 41.8357 33.4773C42.5005 33.4773 43.1256 33.2183 43.5958 32.7481L48.2078 28.1362C48.678 27.6661 48.9369 27.0409 48.9369 26.376C48.9369 25.711 48.678 25.0859 48.2078 24.6159C47.7376 24.1457 47.1125 23.8867 46.4476 23.8867C45.7828 23.8868 45.1577 24.1458 44.6875 24.6159ZM47.4723 26.3762C47.4723 26.6499 47.3657 26.9071 47.1722 27.1006L42.5602 31.7125C42.3666 31.906 42.1093 32.0127 41.8358 32.0127C41.5622 32.0127 41.3049 31.906 41.1114 31.7125L38.4759 29.0771C38.2824 28.8837 38.1759 28.6265 38.1759 28.3528C38.1759 28.0791 38.2824 27.8219 38.476 27.6284C38.6757 27.4286 38.938 27.3288 39.2004 27.3288C39.4627 27.3288 39.7251 27.4287 39.9248 27.6283L41.3179 29.0215C41.4552 29.1589 41.6415 29.236 41.8358 29.236C42.03 29.236 42.2163 29.1589 42.3536 29.0216L45.7233 25.6519C45.9167 25.4584 46.174 25.3519 46.4476 25.3519C46.7212 25.3519 46.9785 25.4584 47.172 25.652C47.3657 25.8453 47.4723 26.1025 47.4723 26.3762Z" fill="white"/>
</g>
<defs>
<clipPath id="clip0">
<rect width="50" height="50" fill="white" transform="translate(3 5)"/>
</clipPath>
</defs>
</svg>
