<svg width="58" height="58" viewBox="0 0 58 58" fill="none" xmlns="http://www.w3.org/2000/svg">
<path fill-rule="evenodd" clip-rule="evenodd" d="M30.0133 0.0502315C39.088 0.708584 43.8461 9.24754 49.0986 15.9785C53.7854 21.9846 59.4779 28.3007 57.6495 35.4654C55.8246 42.6159 47.5808 45.9025 40.5353 49.5336C32.4434 53.704 24.0995 60.223 15.3881 57.246C6.224 54.1144 2.21932 44.5823 0.501839 35.8529C-1.10271 27.6974 1.19055 19.5392 6.66322 12.8999C12.3942 5.94716 20.4606 -0.642794 30.0133 0.0502315Z" fill="#B68E6F"/>
<g clip-path="url(#clip0)">
<path d="M27.1667 23.3333H18.8334V24.9999H27.1667V23.3333Z" fill="white"/>
<path d="M33.8334 27.5H18.8334V29.1667H33.8334V27.5Z" fill="white"/>
<path d="M33.8333 31.6667H10.5V33.3334H33.8333V31.6667Z" fill="white"/>
<path d="M33.8334 23.3333H28.8334V24.9999H33.8334V23.3333Z" fill="white"/>
<path d="M28 35.8333H10.5V37.4999H28V35.8333Z" fill="white"/>
<path d="M28 40H10.5V41.6667H28V40Z" fill="white"/>
<path d="M15.5 44.1667H10.5V45.8334H15.5V44.1667Z" fill="white"/>
<path d="M28 44.1667H17.1667V45.8334H28V44.1667Z" fill="white"/>
<path d="M16.3333 23.3333H10.5V24.9999H16.3333V23.3333Z" fill="white"/>
<path d="M17.1667 27.5H10.5V29.1667H17.1667V27.5Z" fill="white"/>
<path d="M40.5 33.3333C40.2184 33.3333 39.9425 33.3542 39.6667 33.3758V5.83333C39.6667 5.37312 39.2936 5 38.8334 5H5.50002C5.03981 5 4.66669 5.37312 4.66669 5.83333V54.1667C4.66669 54.6269 5.03981 55 5.50002 55H40.5C46.4832 55 51.3334 50.1498 51.3334 44.1667C51.3334 38.1835 46.4832 33.3333 40.5 33.3333ZM6.33335 53.3333V6.66667H38V33.6358C32.1869 35.0042 28.5837 40.8259 29.952 46.6391C30.6056 49.416 32.3302 51.8222 34.75 53.3333H6.33335ZM40.5 53.3333C35.4374 53.3333 31.3334 49.2293 31.3334 44.1667C31.3334 39.1041 35.4374 35 40.5 35C45.5626 35 49.6667 39.1041 49.6667 44.1667C49.6608 49.2268 45.5601 53.3274 40.5 53.3333Z" fill="white"/>
<path d="M18.5899 20.5889L28.5901 10.5886L27.4116 9.41012L17.4114 19.4104L18.5899 20.5889Z" fill="white"/>
<path d="M19.6667 14.1665C21.0474 14.1665 22.1667 13.0472 22.1667 11.6665C22.1667 10.2858 21.0474 9.1665 19.6667 9.1665C18.286 9.1665 17.1667 10.2858 17.1667 11.6665C17.1667 13.0472 18.286 14.1665 19.6667 14.1665ZM19.6667 10.8332C20.1269 10.8332 20.5 11.2063 20.5 11.6665C20.5 12.1267 20.1269 12.4998 19.6667 12.4998C19.2065 12.4998 18.8334 12.1267 18.8334 11.6665C18.8334 11.2063 19.2065 10.8332 19.6667 10.8332Z" fill="white"/>
<path d="M26.3334 15.8333C24.9526 15.8333 23.8334 16.9525 23.8334 18.3332C23.8334 19.714 24.9526 20.8332 26.3334 20.8332C27.7141 20.8332 28.8334 19.714 28.8334 18.3332C28.8334 16.9525 27.7141 15.8333 26.3334 15.8333ZM26.3334 19.1666C25.8732 19.1666 25.5 18.7935 25.5 18.3332C25.5 17.873 25.8732 17.4999 26.3334 17.4999C26.7936 17.4999 27.1667 17.873 27.1667 18.3332C27.1667 18.7935 26.7936 19.1666 26.3334 19.1666Z" fill="white"/>
<path d="M46.0892 40.2441L44.4225 38.5775C44.0971 38.2522 43.5696 38.2522 43.2442 38.5775L40.5 41.3216L37.7559 38.5775C37.4304 38.2522 36.9029 38.2522 36.5775 38.5775L34.9109 40.2441C34.5855 40.5696 34.5855 41.0971 34.9109 41.4225L37.655 44.1667L34.9109 46.9108C34.5855 47.2362 34.5855 47.7637 34.9109 48.0892L36.5775 49.7558C36.9029 50.0811 37.4304 50.0811 37.7559 49.7558L40.5 47.0117L43.2442 49.7558C43.5696 50.0811 44.0971 50.0811 44.4225 49.7558L46.0892 48.0892C46.4145 47.7637 46.4145 47.2362 46.0892 46.9108L43.345 44.1667L46.0892 41.4225C46.4145 41.0971 46.4145 40.5696 46.0892 40.2441ZM41.5775 43.5775C41.2522 43.9029 41.2522 44.4304 41.5775 44.7558L44.3217 47.5L43.8334 47.9883L41.0892 45.2442C40.7638 44.9188 40.2363 44.9188 39.9109 45.2442L37.1667 47.9883L36.6784 47.5L39.4225 44.7558C39.7478 44.4304 39.7478 43.9029 39.4225 43.5775L36.6784 40.8333L37.1667 40.345L39.9109 43.0892C40.2363 43.4145 40.7638 43.4145 41.0892 43.0892L43.8334 40.345L44.3217 40.8333L41.5775 43.5775Z" fill="white"/>
</g>
<defs>
<clipPath id="clip0">
<rect width="50" height="50" fill="white" transform="translate(3 5)"/>
</clipPath>
</defs>
</svg>
