<svg xmlns="http://www.w3.org/2000/svg" width="18" height="18" viewBox="0 0 18 18"><defs><clipPath id="prjta"><path fill="#fff" d="M9 0a9 9 0 1 1 0 18A9 9 0 0 1 9 0z"/></clipPath></defs><g><g><path fill="#fff" d="M9 0a9 9 0 1 1 0 18A9 9 0 0 1 9 0z"/><path fill="none" stroke="#4f6882" stroke-linecap="round" stroke-linejoin="round" stroke-miterlimit="20" stroke-width="4" d="M9 0a9 9 0 1 1 0 18A9 9 0 0 1 9 0z" clip-path="url(&quot;#prjta&quot;)"/></g><g><path fill="#506981" d="M12.288 5.217c.39.39.413 1.046.05 1.464l-1.973 2.27 2.121 2.12c.39.391.413 1.047.05 1.465a.92.92 0 0 1-1.365.049l-2.122-2.121-1.973 2.27a.92.92 0 0 1-1.364.049 1.09 1.09 0 0 1-.05-1.464l1.973-2.27-2.121-2.12a1.09 1.09 0 0 1-.05-1.465.92.92 0 0 1 1.365-.05l2.122 2.122 1.972-2.27a.92.92 0 0 1 1.365-.049z"/></g></g></svg>