<svg xmlns="http://www.w3.org/2000/svg" width="24" height="23" viewBox="0 0 24 23"><defs><mask id="age1b" width="2" height="2" x="-1" y="-1"><path fill="#fff" d="M3 0h18v18H3z"/><path d="M12 0a9 9 0 1 1-9 9 9 9 0 0 1 9-9z"/></mask><filter id="age1a" width="44" height="47" x="-10" y="-13" filterUnits="userSpaceOnUse"><feOffset dy="3" in="SourceGraphic" result="FeOffset1032Out"/><feGaussianBlur in="FeOffset1032Out" result="FeGaussianBlur1033Out" stdDeviation="1.2 1.2"/></filter></defs><g><g><g filter="url(#age1a)"><path fill="none" d="M12 0a9 9 0 1 1-9 9 9 9 0 0 1 9-9z" mask="url(&quot;#age1b&quot;)"/><path fill="#000101" fill-opacity=".3" d="M12 0a9 9 0 1 1-9 9 9 9 0 0 1 9-9z"/></g><path fill="#fff" d="M12 0a9 9 0 1 1-9 9 9 9 0 0 1 9-9z"/></g></g></svg>